<?xml version="1.0" standalone="no"?>
<!DOCTYPE svg PUBLIC "-//W3C//DTD SVG 20010904//EN"
 "http://www.w3.org/TR/2001/REC-SVG-20010904/DTD/svg10.dtd">
<svg version="1.0" xmlns="http://www.w3.org/2000/svg"
 width="9.000000pt" height="6.000000pt" viewBox="0 0 9.000000 6.000000"
 preserveAspectRatio="xMidYMid meet">
<metadata>
Created by potrace 1.16, written by Peter Selinger 2001-2019
</metadata>
<g transform="translate(0.000000,6.000000) scale(0.003000,-0.002500)"
fill="#000000" stroke="none">
<path d="M1794 1782 c-6 -22 -7 -47 -3 -58 3 -10 2 -25 -3 -31 -8 -9 -6 -13 6
-13 9 0 16 -5 16 -11 0 -19 -62 3 -173 59 -4 2 -4 -4 -1 -13 9 -23 -10 -33
-73 -41 -29 -3 -53 -10 -53 -14 0 -4 51 -13 113 -19 131 -15 278 -23 257 -15
-39 14 -60 28 -60 39 0 19 63 5 81 -18 l17 -20 6 21 c6 19 15 22 62 22 30 0
54 -3 54 -8 0 -4 -22 -45 -50 -92 -38 -66 -46 -86 -34 -88 19 -5 10 -17 82
108 l60 105 -89 3 c-56 2 -89 7 -89 14 0 7 -4 7 -12 1 -7 -6 -31 -13 -53 -16
-22 -4 -35 -3 -30 1 15 11 17 32 2 32 -9 0 -12 9 -9 29 2 16 0 36 -5 45 -7 13
-11 8 -19 -22z"/>
<path d="M1461 1787 c-18 -12 -49 -37 -69 -54 -41 -39 -58 -41 -68 -10 l-8 22
-6 -25 c-5 -22 -11 -25 -48 -25 -23 0 -42 3 -42 6 0 3 -10 4 -22 2 -21 -4 -23
0 -25 37 -2 68 -19 71 -26 5 -5 -45 -36 -65 -38 -23 0 21 -1 22 -8 3 -7 -18
-20 -21 -103 -25 l-96 -5 60 -105 c72 -125 63 -113 82 -108 12 2 4 22 -34 88
-28 47 -50 88 -50 92 0 11 128 10 134 -1 4 -5 0 -12 -6 -14 -7 -3 -1 -6 15 -6
15 -1 27 3 27 8 0 4 11 6 24 4 13 -3 29 1 37 9 10 11 23 12 63 5 92 -17 83
-25 -49 -40 -16 -2 20 -5 80 -5 61 -1 117 3 125 8 13 8 13 10 -1 10 -9 0 -22
6 -28 14 -19 23 12 33 112 38 73 4 90 8 107 26 l20 21 -33 24 c-46 35 -62 43
-52 28 4 -7 21 -21 39 -32 30 -19 30 -19 6 -19 -54 2 -91 -8 -105 -26 -17 -22
-20 -11 -4 18 9 18 6 17 -27 -6 -49 -33 -64 -33 -34 -1 13 14 29 25 35 25 6 0
21 14 33 30 13 17 21 30 20 29 -2 0 -18 -11 -37 -22z"/>
<path d="M1344 1526 c-3 -8 -4 -31 -2 -52 3 -39 3 -39 51 -42 l47 -3 0 -205 0
-205 58 3 57 3 0 200 0 200 48 3 47 3 0 55 0 54 -150 0 c-120 0 -152 -3 -156
-14z m296 -41 l0 -45 -50 0 -50 0 0 -205 0 -205 -45 0 -45 0 0 205 0 205 -45
0 -45 0 0 45 0 45 140 0 140 0 0 -45z"/>
<path d="M1270 1064 c0 -10 224 -394 230 -394 6 0 230 384 230 394 0 4 -6 6
-14 6 -8 0 -58 -76 -112 -170 -54 -93 -101 -170 -104 -170 -3 0 -50 77 -104
170 -54 94 -104 170 -112 170 -8 0 -14 -2 -14 -6z"/>
</g>
</svg>
